<?xml version="1.0" encoding="UTF-8"?>
<svg version="1.1" xmlns="http://www.w3.org/2000/svg" width="1080" height="190" viewBox="0 0 1080 190">
<style>
  .logo-fill {
    fill: currentColor;
  }
  @media (prefers-color-scheme: dark) {
    .logo-fill {
      fill: #ffffff;
    }
  }
  @media (prefers-color-scheme: light) {
    .logo-fill {
      fill: #000000;
    }
  }
</style>
<g class="logo-fill">
<path d="M0 0 C1.79 -0 1.79 -0 3.61 -0 C7.51 0 11.4 0.02 15.3 0.05 C18.02 0.05 20.73 0.06 23.45 0.06 C29.85 0.07 36.24 0.09 42.64 0.12 C49.93 0.16 57.22 0.17 64.51 0.19 C79.48 0.22 94.46 0.28 109.44 0.34 C109.44 11.23 109.44 22.12 109.44 33.34 C104.21 33.36 104.21 33.36 98.89 33.38 C87.38 33.44 75.88 33.5 64.38 33.58 C57.4 33.62 50.43 33.66 43.45 33.69 C36.72 33.71 29.99 33.75 23.26 33.8 C20.69 33.82 18.12 33.83 15.56 33.84 C11.96 33.85 8.36 33.88 4.77 33.91 C3.7 33.91 2.64 33.91 1.55 33.9 C-3.88 33.97 -7.93 34.19 -12.56 37.34 C-16.49 42.31 -17.21 46.39 -16.94 52.68 C-16.34 56.91 -15.28 59 -12.56 62.34 C-7.24 65.18 -2.96 65.78 3 65.76 C3.83 65.77 4.65 65.77 5.51 65.78 C8.22 65.81 10.94 65.81 13.65 65.82 C15.55 65.83 17.45 65.85 19.35 65.86 C24.34 65.91 29.33 65.93 34.32 65.95 C42.3 65.99 50.28 66.05 58.26 66.11 C61.04 66.13 63.82 66.14 66.6 66.15 C68.32 66.16 70.03 66.17 71.75 66.18 C72.51 66.18 73.28 66.18 74.06 66.19 C88.68 66.3 99.5 70.53 110.44 80.34 C111.83 81.52 111.83 81.52 113.25 82.72 C121.88 93.07 122.79 104.81 122.75 117.78 C122.77 118.94 122.78 120.1 122.8 121.3 C122.81 135.05 119.21 143.36 109.88 153.22 C107.27 155.76 105.02 157.36 101.44 158.34 C101.44 159 101.44 159.66 101.44 160.34 C99.86 160.95 98.27 161.56 96.69 162.15 C95.81 162.49 94.93 162.83 94.02 163.17 C84.18 166.38 75.22 167.79 64.87 167.77 C63.57 167.78 62.27 167.79 60.93 167.8 C57.41 167.83 53.89 167.84 50.37 167.85 C46.67 167.86 42.97 167.88 39.28 167.91 C32.3 167.95 25.32 167.98 18.34 168 C10.38 168.03 2.43 168.07 -5.52 168.12 C-21.87 168.21 -38.22 168.28 -54.56 168.34 C-55.47 164.4 -55.69 162.72 -53.56 159.22 C-53.1 158.44 -52.63 157.66 -52.16 156.86 C-49.87 153.25 -47.58 149.65 -45.26 146.06 C-43.24 142.83 -41.44 139.51 -39.7 136.12 C-38.56 134.34 -38.56 134.34 -35.56 132.34 C-33.46 132.08 -33.46 132.08 -31 132.08 C-30.06 132.07 -29.12 132.06 -28.16 132.05 C-27.13 132.05 -26.11 132.05 -25.05 132.05 C-23.43 132.04 -23.43 132.04 -21.77 132.03 C-19.42 132.02 -17.07 132.01 -14.72 132.01 C-10.99 132 -7.27 131.98 -3.54 131.95 C4.37 131.9 12.28 131.87 20.19 131.84 C29.34 131.81 38.49 131.76 47.65 131.7 C51.31 131.68 54.98 131.68 58.65 131.67 C60.9 131.66 63.16 131.64 65.41 131.63 C66.43 131.63 67.44 131.63 68.49 131.63 C74.4 131.58 80.15 131.5 85.25 128.15 C89.04 122.37 88.5 116.79 87.44 110.34 C87.34 109.37 87.23 108.4 87.13 107.4 C86.63 105.17 86.63 105.17 84.5 104.15 C83.82 103.88 83.14 103.62 82.44 103.34 C81.78 102.68 81.12 102.02 80.44 101.34 C77.77 101.02 75.21 100.84 72.53 100.74 C71.66 100.7 70.8 100.66 69.91 100.63 C61.15 100.29 52.39 100.21 43.63 100.13 C42.88 100.12 42.13 100.12 41.36 100.11 C34.32 100.04 27.27 99.98 20.23 99.94 C16.33 99.92 12.44 99.88 8.55 99.84 C7.09 99.82 5.63 99.82 4.17 99.81 C-6.95 99.79 -19.06 99.55 -28.5 92.97 C-29.39 92.35 -30.28 91.73 -31.19 91.09 C-31.98 90.52 -32.76 89.94 -33.56 89.34 C-34.16 88.92 -34.75 88.49 -35.37 88.06 C-41.62 83.28 -46.01 76.72 -48.56 69.34 C-48.56 68.02 -48.56 66.7 -48.56 65.34 C-49.22 65.34 -49.88 65.34 -50.56 65.34 C-51.49 62.19 -51.69 59.37 -51.69 56.09 C-51.7 55.09 -51.7 54.09 -51.7 53.06 C-51.69 52.02 -51.69 50.98 -51.69 49.9 C-51.69 48.87 -51.69 47.83 -51.7 46.76 C-51.7 45.26 -51.7 45.26 -51.69 43.72 C-51.69 42.35 -51.69 42.35 -51.69 40.96 C-51.56 38.33 -51.14 35.9 -50.56 33.34 C-49.9 33.34 -49.24 33.34 -48.56 33.34 C-48.4 32.08 -48.23 30.82 -48.06 29.53 C-46.67 23.15 -42.88 18.13 -38.56 13.34 C-37.57 13.01 -36.58 12.68 -35.56 12.34 C-35.23 11.35 -34.9 10.36 -34.56 9.34 C-32.7 7.84 -32.7 7.84 -30.25 6.34 C-29.47 5.85 -28.69 5.35 -27.89 4.84 C-18.87 0.77 -9.78 -0.1 0 0 Z " transform="translate(267.5615234375,14.659423828125)"/>
<path d="M0 0 C13.7 -0.07 27.4 -0.12 41.1 -0.16 C47.47 -0.17 53.83 -0.19 60.2 -0.23 C66.36 -0.26 72.52 -0.28 78.68 -0.28 C81.01 -0.29 83.34 -0.3 85.67 -0.32 C97.25 -0.4 108.62 -0.2 120.11 1.33 C121.44 1.51 121.44 1.51 122.79 1.68 C128.21 2.49 132.92 3.92 138 6 C138.85 6.3 139.7 6.61 140.58 6.92 C147.33 9.43 153.1 12.9 159 17 C159.85 17.56 160.69 18.12 161.57 18.7 C169.43 24.36 174.03 31.86 179 40 C179.79 41.21 179.79 41.21 180.59 42.45 C190.57 60.52 190.99 81.99 189 102 C188.9 103.04 188.8 104.07 188.69 105.14 C186.88 117.88 180.37 132.08 171 141 C170.24 141.76 169.47 142.53 168.69 143.31 C167.8 144.2 166.91 145.09 166 146 C165.47 146.56 164.95 147.12 164.41 147.7 C160.39 151.91 156.23 155.39 151 158 C150.34 158 149.68 158 149 158 C149 158.66 149 159.32 149 160 C147.46 160.51 147.46 160.51 145.89 161.02 C144.53 161.47 143.17 161.92 141.81 162.38 C141.14 162.6 140.47 162.82 139.77 163.05 C137.03 163.96 134.31 164.87 131.65 166.01 C118.14 171.05 101.71 169.26 87.6 169.2 C85.06 169.19 82.53 169.19 79.99 169.19 C74.04 169.18 68.1 169.16 62.15 169.14 C53.5 169.12 44.85 169.11 36.21 169.09 C24.14 169.07 12.07 169.03 0 169 C0 137.32 0 105.64 0 73 C10.89 73 21.78 73 33 73 C34 74 34 74 34.12 76.51 C34.12 77.63 34.12 78.75 34.11 79.9 C34.11 81.16 34.11 82.42 34.11 83.72 C34.11 85.11 34.1 86.49 34.1 87.88 C34.1 89.29 34.09 90.7 34.09 92.11 C34.09 95.83 34.08 99.55 34.07 103.27 C34.06 107.07 34.05 110.86 34.05 114.65 C34.04 122.1 34.02 129.55 34 137 C34.83 136.9 34.83 136.9 35.68 136.79 C43.29 135.92 50.86 135.82 58.52 135.75 C59.91 135.74 61.3 135.72 62.69 135.71 C68.53 135.64 74.38 135.57 80.22 135.52 C83.82 135.49 87.42 135.45 91.02 135.4 C93.02 135.38 95.02 135.37 97.03 135.35 C114.04 135.13 129.07 132.8 142 121 C142.55 120.52 143.11 120.05 143.68 119.56 C152.37 110.95 154.73 97.27 155.04 85.57 C154.95 77.98 154 71.97 151 65 C150.57 63.9 150.57 63.9 150.12 62.78 C147.07 55.35 143.34 48.77 136 45 C135.67 44.34 135.34 43.68 135 43 C132.8 42.09 130.56 41.27 128.31 40.5 C127.09 40.08 125.87 39.65 124.61 39.22 C123.42 38.82 122.23 38.41 121 38 C120 37.64 119.01 37.28 117.98 36.91 C111.19 34.84 104.44 34.84 97.4 34.81 C96.36 34.8 95.31 34.79 94.24 34.79 C91.98 34.77 89.73 34.75 87.47 34.74 C83.91 34.72 80.35 34.69 76.79 34.66 C67.94 34.59 59.1 34.53 50.26 34.47 C42.78 34.42 35.29 34.37 27.81 34.31 C24.29 34.28 20.77 34.26 17.25 34.24 C15.11 34.22 12.97 34.21 10.82 34.19 C9.84 34.19 8.85 34.18 7.84 34.18 C6.5 34.16 6.5 34.16 5.14 34.15 C3.97 34.14 3.97 34.14 2.77 34.14 C1 34 1 34 0 33 C-0.09 30.55 -0.12 28.13 -0.1 25.68 C-0.1 24.95 -0.09 24.22 -0.09 23.47 C-0.09 21.12 -0.08 18.78 -0.06 16.44 C-0.06 14.85 -0.05 13.27 -0.05 11.68 C-0.04 7.79 -0.02 3.89 0 0 Z " transform="translate(7,15)"/>
<path d="M0 0 C11.22 0 22.44 0 34 0 C34 22.11 34 44.22 34 67 C67 67 100 67 134 67 C134 44.89 134 22.78 134 0 C144.23 0 154.46 0 165 0 C165 55.44 165 110.88 165 168 C154.77 168 144.54 168 134 168 C134 145.23 134 122.46 134 99 C101 99 68 99 34 99 C34 107.25 34 115.5 34 124 C33.9 130.74 33.79 137.47 33.63 144.2 C33.56 147.08 33.5 149.97 33.44 152.85 C33.4 154.69 33.36 156.53 33.32 158.38 C33.3 159.23 33.28 160.09 33.27 160.97 C33.11 166.89 33.11 166.89 32 168 C21.44 168 10.88 168 0 168 C0 112.56 0 57.12 0 0 Z " transform="translate(413,15)"/>
<path d="M0 0 C14.13 -0.05 28.27 -0.08 42.4 -0.1 C48.97 -0.11 55.53 -0.13 62.1 -0.15 C68.44 -0.17 74.78 -0.18 81.12 -0.19 C83.53 -0.19 85.95 -0.2 88.36 -0.21 C91.75 -0.23 95.15 -0.23 98.54 -0.23 C99.53 -0.23 100.51 -0.24 101.53 -0.25 C117.51 -0.2 131.03 3.95 143 15 C146.26 18.68 148.54 22.61 150.69 27 C150.99 27.6 151.3 28.21 151.62 28.83 C155.22 36.07 155.21 42.68 155.25 50.62 C155.28 52.17 155.28 52.17 155.31 53.75 C155.36 62.56 154.34 71.69 149 79 C148.52 79.68 148.04 80.37 147.55 81.07 C144.5 85.32 144.5 85.32 143 87 C142.34 87 141.68 87 141 87 C140.77 87.59 140.54 88.17 140.31 88.78 C136.77 94.79 128.73 98.06 122.25 99.81 C120.5 100.21 118.75 100.61 117 101 C115.95 101.34 114.9 101.68 113.81 102.02 C109.81 103.05 106.44 103.24 102.32 103.23 C101.59 103.23 100.86 103.23 100.1 103.23 C97.7 103.23 95.31 103.21 92.91 103.2 C91.24 103.19 89.57 103.19 87.9 103.19 C83.51 103.18 79.13 103.16 74.75 103.14 C70.27 103.12 65.8 103.11 61.32 103.1 C52.55 103.08 43.77 103.04 35 103 C34.08 110.67 33.8 118.28 33.68 126.01 C33.66 127.21 33.64 128.42 33.62 129.66 C33.56 133.48 33.5 137.3 33.44 141.12 C33.39 143.73 33.35 146.33 33.31 148.94 C33.2 155.29 33.1 161.65 33 168 C28.46 168.02 23.92 168.04 19.38 168.05 C17.84 168.06 16.29 168.07 14.75 168.08 C12.53 168.09 10.31 168.09 8.1 168.1 C7.06 168.11 7.06 168.11 5.99 168.11 C4.33 168.11 2.66 168.06 1 168 C-0.89 166.11 -0.13 163.37 -0.14 160.86 C-0.13 159.53 -0.13 159.53 -0.13 158.18 C-0.13 157.26 -0.13 156.33 -0.13 155.38 C-0.14 152.3 -0.14 149.23 -0.13 146.16 C-0.13 144.03 -0.13 141.9 -0.14 139.78 C-0.14 135.32 -0.14 130.85 -0.13 126.39 C-0.12 120.66 -0.13 114.92 -0.13 109.19 C-0.14 104.8 -0.14 100.41 -0.13 96.01 C-0.13 93.9 -0.13 91.78 -0.14 89.67 C-0.14 86.72 -0.13 83.77 -0.13 80.82 C-0.13 79.94 -0.13 79.05 -0.14 78.14 C-0.11 72.11 -0.11 72.11 1 71 C4.09 70.89 7.15 70.84 10.24 70.83 C11.21 70.82 12.18 70.81 13.18 70.81 C15.3 70.79 17.42 70.78 19.54 70.77 C22.89 70.75 26.24 70.73 29.6 70.71 C39.14 70.63 48.68 70.57 58.22 70.52 C64.05 70.49 69.88 70.45 75.71 70.4 C77.93 70.39 80.15 70.37 82.37 70.37 C85.49 70.35 88.61 70.33 91.72 70.3 C92.63 70.3 93.54 70.3 94.48 70.3 C102.7 70.21 109.73 69.7 116 64 C116.66 64 117.32 64 118 64 C120.98 55.93 121.82 49.83 118.75 41.69 C116.35 38 113.98 35.5 109.62 34.4 C107.17 34.03 104.87 33.87 102.38 33.85 C101.04 33.84 101.04 33.84 99.66 33.82 C98.69 33.82 97.72 33.81 96.72 33.81 C95.17 33.8 95.17 33.8 93.59 33.79 C91.35 33.77 89.11 33.75 86.87 33.74 C83.33 33.72 79.8 33.69 76.26 33.66 C67.48 33.59 58.7 33.53 49.91 33.47 C42.49 33.42 35.06 33.37 27.63 33.31 C24.14 33.28 20.64 33.26 17.15 33.24 C15.02 33.22 12.89 33.21 10.76 33.19 C9.3 33.18 9.3 33.18 7.8 33.18 C6.91 33.17 6.02 33.16 5.11 33.15 C4.34 33.15 3.56 33.14 2.76 33.14 C1 33 1 33 0 32 C-0.09 29.62 -0.12 27.28 -0.1 24.9 C-0.1 24.19 -0.09 23.48 -0.09 22.75 C-0.09 20.48 -0.08 18.21 -0.06 15.94 C-0.06 14.4 -0.05 12.86 -0.05 11.33 C-0.04 7.55 -0.02 3.78 0 0 Z " transform="translate(667,15)"/>
<path d="M0 0 C3.77 0.01 7.53 0.01 11.3 0.01 C18.39 0.01 25.47 0.02 32.56 0.03 C40.65 0.04 48.74 0.05 56.82 0.05 C73.41 0.06 90.01 0.08 106.6 0.1 C106.6 10.99 106.6 21.88 106.6 33.1 C85.15 33.1 63.7 33.1 41.6 33.1 C41.6 77.65 41.6 122.2 41.6 168.1 C30.05 168.1 18.5 168.1 6.6 168.1 C6.6 123.55 6.6 79 6.6 33.1 C-14.52 33.1 -35.64 33.1 -57.4 33.1 C-58.4 32.1 -58.4 32.1 -58.53 29.54 C-58.51 20.02 -58.03 10.6 -57.4 1.1 C-38.26 0.22 -19.16 -0.04 0 0 Z " transform="translate(960.4019219875336,14.898606061935425)"/>
<path d="M0 0 C10.89 0 21.78 0 33 0 C33.02 21.76 33.04 43.51 33.05 65.27 C33.06 75.37 33.06 85.47 33.08 95.57 C33.09 104.38 33.09 113.18 33.09 121.98 C33.1 126.64 33.1 131.3 33.11 135.97 C33.11 140.35 33.11 144.73 33.11 149.12 C33.11 150.73 33.12 152.35 33.12 153.96 C33.12 156.15 33.12 158.35 33.12 160.54 C33.12 161.77 33.12 163 33.12 164.27 C33 167 33 167 32 168 C29.72 168.1 27.44 168.13 25.16 168.13 C24.13 168.13 24.13 168.13 23.08 168.14 C21.63 168.14 20.18 168.13 18.73 168.13 C16.51 168.13 14.28 168.13 12.06 168.14 C10.65 168.14 9.25 168.13 7.84 168.13 C6.56 168.13 5.27 168.13 3.94 168.13 C1 168 1 168 0 167 C-0.1 164.85 -0.12 162.69 -0.12 160.54 C-0.12 159.52 -0.12 159.52 -0.12 158.47 C-0.12 156.17 -0.12 153.86 -0.11 151.56 C-0.11 149.91 -0.11 148.27 -0.11 146.62 C-0.11 142.14 -0.11 137.66 -0.1 133.18 C-0.1 128.5 -0.09 123.82 -0.09 119.14 C-0.09 110.28 -0.08 101.41 -0.07 92.55 C-0.06 82.46 -0.06 72.37 -0.05 62.28 C-0.04 41.52 -0.02 20.76 0 0 Z " transform="translate(843,15)"/>
<path d="M0 0 C1.35 0 2.7 0.01 4.05 0.02 C5.11 0.02 5.11 0.02 6.19 0.02 C8.47 0.03 10.74 0.04 13.01 0.05 C14.55 0.06 16.09 0.06 17.62 0.06 C21.4 0.08 25.17 0.09 28.95 0.11 C28.97 21.87 28.99 43.63 29 65.38 C29.01 75.49 29.01 85.59 29.02 95.69 C29.03 104.49 29.04 113.29 29.04 122.09 C29.04 126.75 29.05 131.42 29.05 136.08 C29.06 140.46 29.06 144.85 29.06 149.23 C29.06 150.85 29.06 152.46 29.07 154.07 C29.07 156.27 29.07 158.46 29.07 160.65 C29.07 161.88 29.07 163.11 29.07 164.38 C28.95 167.11 28.95 167.11 27.95 168.11 C25.57 168.2 23.23 168.23 20.85 168.21 C19.79 168.21 19.79 168.21 18.7 168.21 C16.43 168.2 14.16 168.19 11.89 168.18 C10.35 168.17 8.81 168.17 7.28 168.16 C3.5 168.15 -0.28 168.13 -4.05 168.11 C-4.07 146.36 -4.09 124.6 -4.1 102.84 C-4.11 92.74 -4.12 82.64 -4.13 72.54 C-4.14 63.74 -4.14 54.94 -4.15 46.14 C-4.15 41.47 -4.15 36.81 -4.16 32.15 C-4.16 27.76 -4.17 23.38 -4.16 19 C-4.16 17.38 -4.17 15.77 -4.17 14.15 C-4.18 11.96 -4.17 9.77 -4.17 7.57 C-4.17 6.34 -4.17 5.11 -4.17 3.84 C-4 -0.01 -3.9 0.15 0 0 Z " transform="translate(610.051025390625,14.886474609375)"/>
</g>
</svg>