<?xml version="1.0" encoding="UTF-8"?>
<svg
  width="24"
  height="24"
  viewBox="0 0 24 24"
  fill="none"
  xmlns="http://www.w3.org/2000/svg"
>
  <path
    d="M11.4624 9.03396C11.4624 10.3735 10.3767 11.4595 9.03758 11.4595H4.4304C3.09132 11.4595 2.00558 10.3734 2.00558 9.03396V4.4255C2.00558 3.08604 3.09132 2 4.4304 2H9.03749C10.3767 2 11.4624 3.08604 11.4624 4.4255V9.03396ZM22 19.5744C22 20.914 20.9143 22 19.5751 22H14.9681C13.6289 22 12.5432 20.914 12.5432 19.5744V14.9661C12.5432 13.6266 13.6289 12.5405 14.9681 12.5405H19.5751C20.9143 12.5405 22 13.6266 22 14.9661V19.5744ZM11.4568 19.5744C11.4568 20.914 10.3711 22 9.032 22H4.42482C3.08564 22 2 20.914 2 19.5744V14.9661C2 13.6266 3.08573 12.5405 4.42482 12.5405H9.03191C10.3711 12.5405 11.4567 13.6266 11.4567 14.9661V19.5744H11.4568ZM19.3288 4.10775C19.4768 4.10791 19.6188 4.16681 19.7235 4.27152C19.8282 4.37624 19.8871 4.51821 19.8873 4.66631V8.79315C19.8873 9.10108 19.6367 9.35171 19.3288 9.35171H15.2032C15.0551 9.35154 14.9132 9.29265 14.8085 9.18794C14.7038 9.08322 14.6449 8.94125 14.6447 8.79315V4.66631C14.6447 4.35838 14.8952 4.10775 15.2032 4.10775H19.3288ZM19.5695 2H14.9625C13.6233 2 12.5376 3.08604 12.5376 4.42559V9.03387C12.5376 10.3734 13.6233 11.4595 14.9625 11.4595H19.5695C20.9087 11.4595 21.9944 10.3734 21.9944 9.03387V4.42559C21.9944 3.08604 20.9087 2 19.5695 2Z"
    fill="#7F7F7F"
  />
</svg>